<svg id="Capa_1" data-name="Capa 1" xmlns="http://www.w3.org/2000/svg" xmlns:xlink="http://www.w3.org/1999/xlink" viewBox="0 0 622.96 487.53"><defs><style>.cls-1{fill:none;}.cls-2{fill:#1d2747;}.cls-3{clip-path:url(#clip-path);}</style><clipPath id="clip-path" transform="translate(-102.13 -72.9)"><rect class="cls-1" x="102.13" y="72.91" width="622.96" height="487.52"/></clipPath></defs><title>biblioteca</title><rect class="cls-2" x="196.08" y="79.31" width="95.47" height="34.52"/><rect class="cls-2" x="196.08" y="453.85" width="95.47" height="22.77"/><rect class="cls-2" y="48.47" width="80.78" height="395.1"/><rect class="cls-2" width="80.78" height="41.13"/><rect class="cls-2" y="453.11" width="80.78" height="27.91"/><rect class="cls-2" x="506.65" y="88.93" width="80.78" height="41.13" transform="translate(-109.51 98.76) rotate(-17.72)"/><rect class="cls-2" x="574.94" y="126.46" width="80.78" height="395.11" transform="translate(-171.54 129.69) rotate(-17.71)"/><rect class="cls-2" x="641.98" y="520.9" width="80.78" height="27.91" transform="translate(-232.52 160.09) rotate(-17.71)"/><rect class="cls-2" x="94.73" y="109.42" width="80.78" height="326.8"/><rect class="cls-2" x="94.73" y="5.88" width="80.78" height="41.13"/><rect class="cls-2" x="94.73" y="57.28" width="80.78" height="41.13"/><rect class="cls-2" x="94.73" y="443.57" width="80.78" height="42.6"/><rect class="cls-2" x="311.38" y="156.42" width="109.42" height="31.58"/><rect class="cls-2" x="311.38" y="453.85" width="109.42" height="33.05"/><path class="cls-2" d="M328.32,225.66h6.61V487.83h-6.61Zm27.91,0h6.61V487.83h-6.61Zm-58,293.75h95.47V191.88H298.21Z" transform="translate(-102.13 -72.9)"/><g class="cls-3"><path class="cls-2" d="M467.85,436.43c11.75,0,22,12.48,22,27.17,0,15.42-9.55,27.17-22,27.17-11.75,0-22-12.49-22-27.17.73-14.69,10.28-27.17,22-27.17m-54.34,84.45H522.93V269H413.51Z" transform="translate(-102.13 -72.9)"/></g></svg>