<svg id="Capa_1" data-name="Capa 1" xmlns="http://www.w3.org/2000/svg" xmlns:xlink="http://www.w3.org/1999/xlink" viewBox="0 0 694.51 463.02"><defs><style>.cls-1{fill:none;}.cls-2{clip-path:url(#clip-path);}.cls-3{fill:#1d2747;}</style><clipPath id="clip-path" transform="translate(-39.88 -65.01)"><rect class="cls-1" x="39.88" y="65.01" width="694.51" height="463.01"/></clipPath></defs><title>contacto</title><g class="cls-2"><path class="cls-3" d="M379,328,707.67,80.67A70.91,70.91,0,0,0,663.16,65h-552A71,71,0,0,0,59.33,87.43Z" transform="translate(-39.88 -65.01)"/><path class="cls-3" d="M379,372,42.19,118.55a70.82,70.82,0,0,0-2.31,17.71V456.79A71.24,71.24,0,0,0,111.12,528h552a71.24,71.24,0,0,0,71.24-71.23V136.26a70.88,70.88,0,0,0-5.53-27.53Z" transform="translate(-39.88 -65.01)"/></g></svg>