<svg id="Capa_1" data-name="Capa 1" xmlns="http://www.w3.org/2000/svg" xmlns:xlink="http://www.w3.org/1999/xlink" viewBox="0 0 581.75 548.21"><defs><style>.cls-1{fill:none;}.cls-2{clip-path:url(#clip-path);}.cls-3{fill:#1d2747;}</style><clipPath id="clip-path" transform="translate(-91.23 -44.54)"><rect class="cls-1" x="91.23" y="44.54" width="581.75" height="548.2"/></clipPath></defs><title>estrategia</title><g class="cls-2"><path class="cls-3" d="M475,432V343.67c0-7.3-7.25-13.22-16.2-13.22s-16.19,5.92-16.19,13.22v70.08c-.51,0-1-.06-1.52-.06h-7.93V318.53c0-7.29-7.25-13.21-16.2-13.21s-16.2,5.92-16.2,13.21v95.16H389c0-.22.08-.43.08-.65V304.4c0-7.3-7.25-13.22-16.2-13.22s-16.19,5.92-16.19,13.22V413c0,.22.07.43.08.65h-10V321a16.21,16.21,0,0,0-32.4,0V445c-1.09,2.74-2.13,5.52-3.09,8.33l-23.1-45.9c-3.28-6.53-12.42-8.57-20.42-4.57s-11.82,12.54-8.53,19.06L308.09,519a12,12,0,0,0,.84,1.26l9.41,39.94c0,18,1.17,32.55,22,32.55h88.15c20.87,0,31.48-14.57,31.48-32.55l18.89-114A28.7,28.7,0,0,0,475,432" transform="translate(-91.23 -44.54)"/><path class="cls-3" d="M456.33,134.77l-62.87,62.14c-5.2,5.14-4.3,14.45,2,20.79s15.61,7.31,20.81,2.18l49.91-49.33c.34.36.65.75,1,1.11l5.59,5.63-67.75,67c-5.2,5.14-4.31,14.45,2,20.79s15.61,7.32,20.81,2.18l67.75-67,8.27,8.34c-.16.14-.36.24-.52.39L426,285.44c-5.19,5.15-4.3,14.45,2,20.79s15.61,7.32,20.8,2.18L526.12,232c.16-.16.26-.35.41-.52l7.05,7.1-66,65.24a16.19,16.19,0,0,0,22.8,23l88.27-87.26c2.71-1.14,5.43-2.37,8.11-3.66l-16.43,48.68c-2.33,6.92,2.65,14.83,11.12,17.68s17.25-.45,19.58-7.37l34.75-103a12.71,12.71,0,0,0,.31-1.49l21.81-34.78c12.8-12.65,22.35-23.74,7.67-38.53L603.52,54.57c-14.68-14.79-32.53-12.06-45.33.6L463.77,122a28.65,28.65,0,0,0-7.44,12.8" transform="translate(-91.23 -44.54)"/><path class="cls-3" d="M181.66,266.55l62.28,62.72c5.15,5.19,14.48,4.3,20.84-2s7.33-15.57,2.18-20.76l-49.44-49.79c.37-.34.75-.66,1.12-1l5.63-5.57,67.12,67.59c5.15,5.19,14.48,4.3,20.83-2s7.34-15.59,2.19-20.77l-67.12-67.6,8.35-8.25c.15.17.25.36.4.52l76.63,77.17c5.16,5.19,14.48,4.3,20.84-2s7.33-15.57,2.18-20.76l-76.63-77.17c-.16-.16-.35-.26-.52-.41l7.11-7L351,255.32a16.19,16.19,0,0,0,23-22.76L286.6,144.49c-1.15-2.7-2.37-5.41-3.68-8.09l48.8,16.4c6.93,2.32,14.87-2.64,17.72-11.1s-.45-17.21-7.39-19.53L238.87,87.49a10.92,10.92,0,0,0-1.49-.3L202.52,65.42c-12.67-12.77-23.79-22.3-38.61-7.65l-62.62,61.91c-14.83,14.65-12.09,32.46.59,45.23l67,94.21a28.79,28.79,0,0,0,12.82,7.43" transform="translate(-91.23 -44.54)"/></g></svg>