<svg id="Capa_1" data-name="Capa 1" xmlns="http://www.w3.org/2000/svg" xmlns:xlink="http://www.w3.org/1999/xlink" viewBox="0 0 419.92 489.33"><defs><style>.cls-1{fill:none;}.cls-2{clip-path:url(#clip-path);}.cls-3{fill:#1d2747;}</style><clipPath id="clip-path" transform="translate(-185.42 -64.68)"><rect class="cls-1" x="185.41" y="64.69" width="419.91" height="489.33"/></clipPath></defs><title>arbol</title><g class="cls-2"><path class="cls-3" d="M493.28,313.79c-11.23,3.16-22.86,4.4-34.17,7,1.54-2.4,2.38-5.2,3.65-7.73a55.45,55.45,0,0,0,3.6-8.78,107.24,107.24,0,0,0,2.94-11.81c3.55.71,6.67,1.1,8,1.47-2.27.48-3.71,1.21-6,1.78,0-.1-.36,4.34,0,3.94a119.53,119.53,0,0,0,28.5,11.91,62.28,62.28,0,0,1-6.55,2.22M453.33,439.73c-3.66,3.45-1,10.42,5,15.76-1.62,2.38-3.29,4.72-5.07,7-6.63,8.35-14.75,15.63-24.43,20.11-.23-4.31-.44-8.61-.69-12.92-.58-10.09-1.33-20.2-2.5-30.24,7.85,2.25,20.47,2.43,27.72.33m-63.64-3.33c-3-1.67-6.05-3.25-9.12-4.86a49,49,0,0,0,11.51-3.5c6.55-3.07,21.16-17.32,6.12-17.89,4.14.16,6.64,0,8.06-.56a9.84,9.84,0,0,0,1.21,2.4c.1,3.9.19,7.79.28,11.69-.05.49-.1,1-.17,1.48-.78,6.74-1.83,13.45-3,20.14-4.77-3.26-9.85-6.1-14.91-8.9m17.2-43.14c.11,3.1.2,6.2.29,9.3a13.65,13.65,0,0,0-.67,1.23,29.77,29.77,0,0,1-3.12-9.83c-.67-6.8,1.43-13.53.62-19.66a84.32,84.32,0,0,1,2.88,19M425.7,226.35c-3.21-6-4.4-12.91-4.88-19.83,17.83,10.09,50.86,10.95,58.13-7.11,4.39,9.85,18.9,15.17,33.82,15.38A50.45,50.45,0,0,1,509.71,227a48.34,48.34,0,0,1-9.63,14.55c-.83.24-1.66.48-2.47.75-5.27,1.73-23.52,11.48-25.54,18.91.09-5.48.16-12.5-2.78-16.86a1.2,1.2,0,0,0-2,0c-2.16,4.25-1.87,10.13-1.79,15.15-14.34-9.93-31.31-17.34-39.77-33.19M472,263.62l0,.11,0,0v-.14m-205-32.3c-9.62-4.62-20-11.2-25.24-20.58a45.1,45.1,0,0,1-4.29-11.27c6.87,2.94,14.58,3.84,22.21.62,7.17-3,20.3-16.44,8.1-20.19,10.88,3.34,21,10.88,31.41,16.53a170.31,170.31,0,0,0,.93,30.93,97.64,97.64,0,0,0,5.34,21.71,101.1,101.1,0,0,0-9.16-5.12c-9.56-4.67-19.71-8-29.3-12.63m77.76-55.62c-4.14-3.94-11.25-6.24-20.43-4.95,9.91-1.93,16-5.61,19-9.8a27.21,27.21,0,0,0,14-4.86c-.62,2-1.28,4-2.05,6a31.41,31.41,0,0,1-10.56,13.65m238.51,84c5.82-.86,8.45-7,6.08-13-2.66-6.74-15-8.25-21-9.32-17.44-3.13-38.71-2.54-57.35,1.35a52.7,52.7,0,0,0,4.53-8.24,51.19,51.19,0,0,0,3.79-16c16.2-1.41,31.17-9,32.26-23.6,11.69,5,28.25-6.23,29.52-20.24,1.27-13.79-21.71-30.33-35.16-23.15,14.56-14.13-61.48-31.7-63-8.48-4.48-17.56-62.07-10.14-54.05,10.29-3.05-7.44-19.15-10.66-24.86-4.33-8.71,9.66,3.46,15.13,9.5,21,0,.09,0,.16.05.25h0c-12.14-.05-30.33,3.72-21,19.57,4.95,8.44,14.8,8.54,23.57,7.91,0,.61,0,1.21,0,1.82-1.43,1-2.72,2.22-4.28,3.36a22.24,22.24,0,0,0,4.49,4.63c.43,8.62,1.63,17.1,5.21,25.14,8.27,18.57,28,26.62,43.57,38.25l.15.09c-.07,1.51-.18,3-.29,4.57-5.68,2.35-10.56,5.91-11.08,10.17-.54,4.46,3.49,7.15,8.4,8.86a74.15,74.15,0,0,1-4,12.61,32.63,32.63,0,0,1-4.32,8.22c-1.75,2.17-4.1,3.86-6,5.92-2.33,2.54-4.82,4.91-7.37,7.24-6,2.69-11.4,7.94-15.35,13.4-1.55,1.4-3.11,2.81-4.61,4.28a71.16,71.16,0,0,0-11.19,13.9l-.45.8q-1.41-3-3-5.87c-8.69-15.81-22-28.71-35.43-40.69-2.48-2.21-5-4.42-7.58-6.62,16.78,1.6,33.79,3.22,50.87-3.46,20.83-8.16,18-22.24-5.14-24.39,40.44-7.38-6.2-31.66-30.11-23.39,16.42-20-53.07-18-63.55-1.19a77.28,77.28,0,0,1-5.48-14.15A110.58,110.58,0,0,1,306,211.2a3.46,3.46,0,0,0,.42-.55c1.61-3,2.78-6,5.08-8.56l.24-.26a32.53,32.53,0,0,0,21.2-.45c13.77-5.09,17.83-14,15-21a39.74,39.74,0,0,0,11.87-16,38,38,0,0,0,1.34-3.79c11.32,5.28,24.58-1,34.13-7.76,6.21-4.4,23.95-22.65,10.87-22.8,9.21-2.49,19.8-19.83,16.57-27.73s-25-12.42-36.76-11.75c2.91-1.89,3.66-5.93,3.23-10.46-.89-9.56-6.44-10.11-15.46-12.28-12.11-2.91-51-7.58-56,6.35l1.53,4.44c-10-11-48.53,1.61-56.25,12-7.11,9.58,4.55,19.24,15.5,20.3a10.16,10.16,0,0,0-6.75,12c-1,.55-2,1.12-2.86,1.71.82,1.09,1.85,2.06,2.7,3.16-16.12-5.64-73.09-7.34-56,22-13.1-6-31.35,10.38-30.16,23.94.82,9.61,14.2,18.95,23.25,20.87,6.1,1.28,19.79,1.27,14.93-4.39a49.87,49.87,0,0,0,9.37,7.08,48.16,48.16,0,0,0,2.4,12.7c3.68,10.72,12.9,18.33,22.47,24.07s19.93,9.34,30,13.73c2.3,1,4.57,2.1,6.8,3.23-13.63,1.41-27.35,2.66-41,5.4,2.17,3.84,2.55,8.72,7.07,12.27-9.42.63-19.28-.82-27.89,2.53,4.32,11.73,15.11,20.46,25.47,27.64-.86,0-2.23,0-2.82,0,14.66,23.84,62.09,6.16,84.16,5.2-.47-.22-5.3-1.51-4.94-1.42a106.82,106.82,0,0,1,12.27-.07l1.69,1.52c13.85,12.35,28.26,24.55,39.65,39.21a88.67,88.67,0,0,1,14.1,25.85,17.63,17.63,0,0,0-6.34-6.61c-7.49-4.89-22.46-3.93-31.49-5.09-5.44-.7-6.82,4.24-11.82,3.07-4.62-1.08-9.81-7.42-15.39-9-10.36-2.95-23.52-1-33.63,1.85S272,366.82,288.5,376.76c-9,4.27-38.95,13.42-38,25.62,1,13.6,28.71,15.53,37.68,17.9a20.73,20.73,0,0,0-14.27,4.41c17.42,7.29,57.22,14,78.69,6.76a59.75,59.75,0,0,0,15.3,1.41c4.68,2.65,9.53,5,14.29,7.57,5.27,2.79,10.54,5.62,15.65,8.7,1.81,1.09,3.66,2.21,5.51,3.36-2,10.92-4.14,21.81-5.89,32.76a295,295,0,0,0-3.53,30.8c-.26,4.73-.29,9.45-.14,14.16.06,2.34.23,4.66.41,7,.24,2.92.13,6.91,1.66,9.45,2.35,3.93,9.14,5.91,13.45,6.78a23.33,23.33,0,0,0,5.91.45,5.3,5.3,0,0,0,3.85-.53,20.31,20.31,0,0,0,3.56-1.17,15.08,15.08,0,0,0,3.69-2.32c3,.83,5.79-1,7.44-3.25,2.12-2.83,1.07-6.4.33-9.51-.62-2.6-1.07-5.24-1.48-7.89-.33-2.07-.59-4.31-.92-7-.39-3.28-.7-6.59-1-9.89-.65-7.66-1.12-15.34-1.52-23,11.72-2.65,21.62-11.4,29.28-20.36,2.44-2.84,4.7-5.79,6.85-8.82a23.44,23.44,0,0,0,25.21-2.78c-.29,1.19-1,2-1.24,3,10.37,7.63,23.46,1.64,32.62-4.84,5.36-3.78,20.69-19.55,9.38-19.67,8-2.15,17.12-17.13,14.31-24S524,401.2,513.82,401.78c2.53-1.64,3.17-5.14,2.81-9-.77-8.26-5.57-8.74-13.37-10.61-10.44-2.51-44-6.55-48.33,5.47l1.32,3.85c-5.45-5.95-20.6-3.87-32.75.71q.06-1.83.15-3.69c.66-12.2,1.94-25,6.28-36.52a65.63,65.63,0,0,1,3-6.81c4.37-3.86,8.9-7.55,13.32-11.35,1.83-1.58,3.74-3.18,5.57-4.85,15.17-5.22,31.35-6.05,46.52-11.29a48.63,48.63,0,0,0,9.49-4.44c12.92,2,25.74.37,34.84-8.86.16.06-.16-.25-.64-.71,6.47,3.82,21.89,4.55,27.85,2.24,6.75-2.62,10.81-10.69,8.59-15.28,20.8-.17,45.93-31.87,4.79-30.87" transform="translate(-185.42 -64.68)"/></g></svg>