<svg id="Capa_1" data-name="Capa 1" xmlns="http://www.w3.org/2000/svg" xmlns:xlink="http://www.w3.org/1999/xlink" viewBox="0 0 457.83 529.81"><defs><style>.cls-1{fill:none;}.cls-2{clip-path:url(#clip-path);}.cls-3{fill:#1d2747;}</style><clipPath id="clip-path" transform="translate(-167.14 -47.81)"><rect class="cls-1" x="167.14" y="47.82" width="457.83" height="529.81"/></clipPath></defs><title>Hombre escalando</title><g class="cls-2"><path class="cls-3" d="M625,48V577.49c-398.81.23-370.86.34-392.17-1.1a25.88,25.88,0,0,1-1.13-4.86,43.39,43.39,0,0,0,9.46.89,48.55,48.55,0,0,0,5.73-.24c17.87-1.74,21.65-22.24,11.6-37.73-.13-1.66,0-5.09.11-8,1.47-1.55,2.81-3.09,4.16-4.64,6.41-8.05,11.14-17.56,18.9-24.28,8.78-7.73,21.27-12,27.24-21.75,16.85-.69,27.21-17.09,19-39,18.22-13.58,40.84-37.2,45.34-41.84,22.29-16.44,21.38-28.69,18.91-34.42-3.93-14.69-31.36-42.59-35.22-49.78,2.81-1.66,5.84-3.09,8.66-4.75,23.63-13.46,36.8-42.6,31.05-68.76-5.82-27.35-26.34-44.51-19.8-75.18,30.78-11.21,41.83-24.13,66.51-34.32l1.81-4.53c1.9-.05,8,.25,16.88-7.17,12.52-4.33,21.78-12.57,17.54-23.18,8.37-2.59,11.83-8,11.83-13a12.79,12.79,0,0,0-.91-10.7l-9.23-5.52a62.8,62.8,0,0,1-11.7-1.22,22,22,0,0,0-4.72-.54c-5.41,0-8.67,2.43-12.72,5.52-1.24,1-2.92,2.32-5.18,3.85a15.56,15.56,0,0,0-2.58.67C471.81,33.89,440,53.75,625,48" transform="translate(-167.14 -47.81)"/><path class="cls-3" d="M298,425.34a26,26,0,0,0,3.16,2.64,26,26,0,0,1-3.16-2.64M480.77,74.75c-23.4-1-10.46-6.23-30,7.5H448.9c-2.79,0-2.18,1.37-17.44,19.12-21.24,2.09-86.88,24.69-97.12,22.25-3.26-.84-8,.83-8,.83-5.17,2.24-7.84,1.49-7.84,1.49-10.62-3.39-35.28-1.89-51.53-.39-7.82-3.2-17-2.1-17-2.1l-2-4.83c1.56-.92,2.62-4.68,3.06-6.44a2.69,2.69,0,0,0,.4-1.61h0c.24-1.1.36-1.89.36-1.89,7-4,8.87-7.2,8.93-9.52.1-2.72-1.31-3.06-2.24-4.16-2.49-.57-4.39-3.76-4.39-3.76,1.13-4.08-3-2.1-3-2.07a5.38,5.38,0,0,0-.48-3.06.1.1,0,0,0,0,0c-1.29-2.21-3.56-2-4.67-2.53a14.25,14.25,0,0,0,2.8-3,1.34,1.34,0,0,1,.06-.12c3.18-5-2.06-4.53-6.28-4.35-.34,0-4.68,0-5,0-4.62,0-6.25-3.82-9.54-6.74h0l4-8.75S216.8,59,211.46,57.62c-27.32-7.25-53.31,24.24-41.31,51.06,2,4.63,18.5,18.11,18.5,21.12l.64-1s.09,0,.14,0a5.85,5.85,0,0,0,7.09.19,0,0,0,0,0,0,0,3.22,3.22,0,0,0,.63-.48h0c0-2.72,6.48-1,6.59-1-.61.78-.17,3,.43,5,0,0,0,.06,0,.09l.09.28c.51,1.72,1.1,3.2,1.22,3.53l-.08-.07a.31.31,0,0,1,.13.24,3.88,3.88,0,0,0-1.3.2c-4.72,1-9.77,9.86-11.23,12.63l-.46.88c-6.6,6,1,22.76,1,22.76l-5.89,10.71c-3.85,4.56-3.06,28.27-3.06,28.27-1,3,2.29,25.26,2.29,25.26-.79,6.48,12.47,49.44,12.47,49.44-.26,3.53,5.37,14.06,5.37,14.06.79,7,11.24,20.7,11.24,20.7,1,6,9.86,12.19,9.92,12.24v0c.71,43.52-3.69,69.46-4.36,81.73-8.1,8.28-10.91,68.23-10.91,68.23a20.81,20.81,0,0,0,2.29,15l1.25-.14-.82,24.15s-2.55,8.24,0,13.74c0,0-2,20,17.84,23.5,0,0,5,2.12,14.44,1.22,9.69-.93,7.93-14.32,2.77-21.57-3.65-5.11,1.9-26.9-3.2-36.9,0,0,.4-3.85.51-7.39l.8-.08c4.38-10.77.79-47.25.79-47.25,2.29-2.76,2.55-11.74,2.55-11.74,11.35-10,14.36-39.1,15.55-45.63,1.08-.45,2.29-1.06,2.13-1.7,0,0,5,.71,5.18-3.39l-4.15-11.18c.13-.65.26-1.28.38-1.9,2.88,2.34,4.62.08,4.1-1.5-.88-2.61-2.26-6.86-2.2-7.56.11-.52.19-.88.19-.88,2.75-2.75,13.46-28.54,13.46-28.54,2,3.53,52.24,37.26,52.24,37.26l-32.09,31c-8.3,1.54-13.9,9.42-14,9.54l0-.06c-1.59.5-18,10.47-26.08,15.38a7.47,7.47,0,0,0-3.4,8.6c3.54,10.57,15.66,13.59,15.66,13.59A22.67,22.67,0,0,1,289.76,453c11.76,17.42,27.58,13.31,29.31,2.83,1.53-9.26-2.26-16.85-4.47-20.36.19.28.31.43.53.77a23.29,23.29,0,0,0-2-3c19.1-10.78,52.5-46.49,52.5-46.49,21.12-15.26,15.82-22.51,15.82-22.51C380,354.19,351,323.75,346.9,315.79c-4.52-8.87-22.25-13.46-20.6-27.62.59-4.95-2.49-9-5.16-11.55-5.78-5.34-2.44-10.81-7.84-16.1a13,13,0,0,1-3.48-10.06c1.58-23.73-9.86-79.32-9.86-79.32,1.38-.19,9.15-5.07,9.15-5.07,14.58,1.67,47.08-10.13,47.08-10.13,21-1.16,60-26.6,60-26.6,4.76-4.18,22.74-11.68,22.74-11.68L437.27,114l2.49-1.07a7.74,7.74,0,0,1,3.55-.68c8.65.52,10.56-5.23,15.05-6.63,14.34-4.53,10.37-9.48,10.37-9.48-1-3.39-15.29-.94-15.29-.94-1.38-1.9.73-7.55,5.13-8.68l11.69-3c13.39-1.68,9.37-5.44,9.37-5.44,1.9-2.06,1.14-3.37,1.14-3.37" transform="translate(-167.14 -47.81)"/><path class="cls-3" d="M479.63,78.12a33.11,33.11,0,0,1-9.76-.92,33.11,33.11,0,0,1,9.76.92" transform="translate(-167.14 -47.81)"/></g></svg>