<svg id="Capa_1" data-name="Capa 1" xmlns="http://www.w3.org/2000/svg" xmlns:xlink="http://www.w3.org/1999/xlink" viewBox="0 0 513.96 542.91"><defs><style>.cls-1{fill:none;}.cls-2{clip-path:url(#clip-path);}.cls-3{fill:#1d2747;}</style><clipPath id="clip-path" transform="translate(-132.57 -26.58)"><rect class="cls-1" x="132.57" y="26.58" width="513.96" height="542.91"/></clipPath></defs><title>iglesia</title><g class="cls-2"><path class="cls-3" d="M332.87,122.72s-3.79,0-3.79-7.54A15.3,15.3,0,0,0,314,100.09a15.08,15.08,0,0,0-15.12,15.09c0,7.54-3.78,7.54-3.78,7.54a3.77,3.77,0,1,0,0,7.53h37.79a3.77,3.77,0,1,0,0-7.53" transform="translate(-132.57 -26.58)"/><path class="cls-3" d="M314,134a7.54,7.54,0,1,1-7.56,7.54A7.55,7.55,0,0,1,314,134" transform="translate(-132.57 -26.58)"/><path class="cls-3" d="M314,26.58a11.31,11.31,0,1,1-11.34,11.3A11.31,11.31,0,0,1,314,26.58" transform="translate(-132.57 -26.58)"/><path class="cls-3" d="M374.43,350.82v22.62H329.09V290.5a22.67,22.67,0,0,1,45.34,0Zm-75.58,0v22.62H253.51V290.5a22.68,22.68,0,0,1,45.36,0v60.32ZM283.73,94.44h60.46v60.32H283.73ZM434.9,350.82H404.67V245.25h15.12V222.62H382l-22.69-67.86V94.44a7.54,7.54,0,1,0,0-15.08h-15.1a30.24,30.24,0,0,0-60.48,0h-15.1a7.54,7.54,0,1,0,0,15.08v60.32l-22.69,67.86H208.15v22.63h15.12V350.82h-90.7V569.48H201C214,434,575.93,439.69,434.9,350.82" transform="translate(-132.57 -26.58)"/><path class="cls-3" d="M472.69,350.82c153.51,43.75-103,143.92,85.07,218.66h88.77V350.82Z" transform="translate(-132.57 -26.58)"/></g></svg>